<svg width="790" height="816" viewBox="0 0 790 816" fill="none" xmlns="http://www.w3.org/2000/svg">
<path opacity="0.5" fill-rule="evenodd" clip-rule="evenodd" d="M193.796 651.034C130.032 617.692 89.4794 543.188 83.809 471.457C78.5211 404.563 131.088 350.483 165.482 292.866C192.006 248.434 223.769 211.349 260.712 175.115C305.629 131.06 341.119 65.1522 403.75 59.1688C467.005 53.1258 518.943 105.757 568.341 145.726C615.676 184.025 667.206 224.378 681.181 283.641C694.784 341.324 661.289 396.73 640.634 452.28C620.757 505.736 608.911 565.833 563.448 600.268C517.418 635.134 455.455 628.019 398.247 635.876C328.847 645.407 255.873 683.494 193.796 651.034Z" stroke="black"/>
</svg>
