<svg width="745" height="814" viewBox="0 0 745 814" fill="none" xmlns="http://www.w3.org/2000/svg">
<path fill-rule="evenodd" clip-rule="evenodd" d="M192.796 650.034C129.032 616.692 88.4794 542.188 82.8091 470.457C77.5211 403.563 130.088 349.483 164.483 291.866C191.006 247.434 222.769 210.349 259.712 174.115C304.629 130.06 340.119 64.1523 402.75 58.1688C466.005 52.1258 517.943 104.757 567.341 144.726C614.676 183.025 666.206 223.378 680.181 282.641C693.784 340.324 660.289 395.73 639.634 451.28C619.757 504.736 607.911 564.833 562.448 599.268C516.418 634.134 454.455 627.019 397.247 634.876C327.847 644.407 254.873 682.494 192.796 650.034Z" fill="#E4D8CF"/>
</svg>
