<svg width="621" height="612" viewBox="0 0 621 612" fill="none" xmlns="http://www.w3.org/2000/svg">
<path opacity="0.5" fill-rule="evenodd" clip-rule="evenodd" d="M288.055 1.61784C352.042 -4.15666 410.213 31.5946 465.044 65.0781C524.541 101.411 597.952 134.775 616.259 202.042C634.46 268.921 575.22 329.119 554.94 395.398C534.139 463.38 554.654 554.715 496.04 594.948C437.267 635.29 358.502 589.502 288.055 578.588C230.304 569.642 165.846 575.836 122.153 537.027C79.7453 499.36 85.2855 434.155 65.569 380.972C44.6335 324.501 -10.6113 274.747 3.18416 216.121C17.0685 157.118 84.4256 131.519 132.848 95.0575C182.3 57.8215 226.403 7.18171 288.055 1.61784Z" stroke="black"/>
</svg>
