<svg width="410" height="462" viewBox="0 0 410 462" fill="none" xmlns="http://www.w3.org/2000/svg">
<path opacity="0.3" fill-rule="evenodd" clip-rule="evenodd" d="M215.002 38.9823C268.06 26.8435 325.411 -19.5899 371.511 9.33062C416.904 37.8078 408.486 107.754 409.965 161.292C411.103 202.48 383.907 236.919 378.929 277.821C372.017 334.615 416.385 405.264 375.409 445.222C336.138 483.518 269.335 445.336 215.002 437.676C169.39 431.246 119.808 433.668 84.4211 404.199C49.9529 375.494 44.733 327.025 30.9124 284.368C17.1095 241.765 -10.304 198.521 4.03796 156.097C18.3461 113.773 64.0541 92.4255 103.134 70.7305C137.87 51.4471 176.268 47.844 215.002 38.9823Z" fill="#E4D8CF"/>
</svg>
