<svg width="563" height="505" viewBox="0 0 563 505" fill="none" xmlns="http://www.w3.org/2000/svg">
<path opacity="0.2" fill-rule="evenodd" clip-rule="evenodd" d="M478.389 176.459C487.74 217.479 512.415 255.956 503.327 297.035C493.822 339.999 467.552 381.536 428.525 401.861C391.352 421.22 347.544 395.289 305.883 399.86C256.254 405.305 210.412 446.987 163.122 430.979C112.346 413.79 71.9912 366.989 56.8606 315.563C41.9108 264.751 57.3127 208.587 84.2773 163C107.985 122.917 151.694 101.174 194.507 82.8514C229.298 67.962 267.072 75.2408 304.364 68.8091C352.612 60.488 403.026 13.9514 444.663 39.7079C485.593 65.0263 467.692 129.536 478.389 176.459Z" fill="#C4C4C4"/>
</svg>
