<svg width="802" height="794" viewBox="0 0 802 794" fill="none" xmlns="http://www.w3.org/2000/svg">
<path opacity="0.5" fill-rule="evenodd" clip-rule="evenodd" d="M335.569 88.4322C400.208 63.4812 473.928 74.7285 537.939 101.25C599.02 126.559 650.178 173.051 680.987 231.552C709.357 285.42 709.657 348.635 699.868 408.725C691.214 461.849 660.113 505.445 629.194 549.502C597.378 594.838 565.459 638.758 518.183 667.613C458.843 703.83 395.044 743.036 326.047 734.525C250.813 725.245 162.876 691.24 135.78 620.444C108.257 548.535 187.166 480.331 199.68 404.359C209.266 346.171 176.504 285.945 199.805 231.771C226.461 169.801 272.634 112.725 335.569 88.4322Z" stroke="black"/>
</svg>
