<svg width="541" height="507" viewBox="0 0 541 507" fill="none" xmlns="http://www.w3.org/2000/svg">
<path opacity="0.2" fill-rule="evenodd" clip-rule="evenodd" d="M250.816 0.44797C301.798 4.2357 339.848 42.9732 383.357 69.7887C431.418 99.4096 492.655 114.932 518.204 165.244C545.174 218.356 551.038 288.48 520.332 339.527C490.577 388.994 418.516 384.958 368.584 413.979C326.154 438.64 298.642 485.123 250.816 496.176C195.487 508.964 127.555 517.5 85.462 479.413C43.3144 441.277 67.1926 371.311 52.2405 316.5C38.3846 265.707 -8.49336 222.78 1.34571 171.06C11.4928 117.721 58.2906 79.6384 103.135 48.9694C146.969 18.9915 197.842 -3.48782 250.816 0.44797Z" fill="#E4D8CF"/>
</svg>
