<svg width="817" height="805" viewBox="0 0 817 805" fill="none" xmlns="http://www.w3.org/2000/svg">
<path opacity="0.2" fill-rule="evenodd" clip-rule="evenodd" d="M565.189 631.064C505.701 651.093 448.421 598.662 386.458 588.637C334.429 580.219 280.934 598.345 232.63 577.259C173.088 551.267 107.861 518.048 85.2389 457.145C62.1453 394.974 79.1546 320.192 116.881 265.645C151.397 215.741 219.376 209.234 274.398 183.652C319.78 162.553 360.642 134.892 410.364 129.194C468.129 122.575 529.469 118.915 579.404 148.701C633.041 180.695 668.996 235.941 688.685 295.21C709.235 357.068 713.935 424.774 691.44 485.951C668.757 547.637 627.477 610.093 565.189 631.064Z" fill="#E4D8CF"/>
</svg>
