<svg width="542" height="509" viewBox="0 0 542 509" fill="none" xmlns="http://www.w3.org/2000/svg">
<path opacity="0.5" fill-rule="evenodd" clip-rule="evenodd" d="M251.353 1.44797C302.24 5.2357 340.22 43.9732 383.648 70.7887C431.62 100.41 492.744 115.932 518.246 166.244C545.167 219.356 551.02 289.48 520.37 340.527C490.67 389.994 418.742 385.958 368.903 414.979C326.551 439.64 299.09 486.123 251.353 497.176C196.125 509.963 128.319 518.5 86.304 480.413C44.2343 442.277 68.0684 372.311 53.144 317.5C39.3137 266.707 -7.47766 223.78 2.34323 172.06C12.4715 118.721 59.1828 80.6384 103.944 49.9694C147.697 19.9915 198.476 -2.48782 251.353 1.44797Z" stroke="black"/>
</svg>
