<svg width="649" height="495" viewBox="0 0 649 495" fill="none" xmlns="http://www.w3.org/2000/svg">
<path opacity="0.2" fill-rule="evenodd" clip-rule="evenodd" d="M612.249 228.87C607.804 282.385 624.4 338.555 595.854 385.216C565.997 434.018 514.828 474.784 455.613 484.9C399.212 494.536 352.537 446.474 296.279 436.397C229.263 424.394 152.478 457.986 97.2261 420.71C37.902 380.687 4.20967 308.481 5.33327 240.111C6.44343 172.558 49.3601 109.881 103.081 64.4388C150.314 24.4845 216.218 14.3965 279.563 8.1419C331.039 3.05929 377.408 26.1194 428.716 32.2862C495.097 40.2645 579.824 2.47284 623.736 49.5081C666.902 95.7431 617.333 167.655 612.249 228.87Z" stroke="black"/>
</svg>
