<svg width="644" height="571" viewBox="0 0 644 571" fill="none" xmlns="http://www.w3.org/2000/svg">
<path opacity="0.5" fill-rule="evenodd" clip-rule="evenodd" d="M356.15 42.6133C423.551 46.7074 496.235 7.71851 553.814 40.5144C612.062 73.6911 638.569 143.127 643.713 206.404C648.291 262.72 596.882 306.463 579.839 360.676C561.952 417.574 586.701 488.367 541.824 530.513C496.015 573.535 421.279 569.281 356.15 570.753C289.414 572.262 223.125 567.465 163.79 539.059C96.6114 506.898 9.04055 470.234 0.503734 400.494C-8.28643 328.683 100.55 292.039 125.16 223.476C149.426 155.87 80.0963 61.2379 138.762 15.3034C196.069 -29.5674 281.352 38.07 356.15 42.6133Z" fill="#E4D8CF"/>
</svg>
