<svg width="819" height="806" viewBox="0 0 819 806" fill="none" xmlns="http://www.w3.org/2000/svg">
<path opacity="0.2" fill-rule="evenodd" clip-rule="evenodd" d="M566.29 631.641C506.802 651.67 449.521 599.238 387.558 589.213C335.529 580.795 282.035 598.922 233.731 577.836C174.189 551.844 108.962 518.624 86.3395 457.722C63.2459 395.551 80.2552 320.768 117.982 266.222C152.498 216.317 220.477 209.811 275.499 184.229C320.88 163.129 361.743 135.468 411.464 129.771C469.23 123.151 530.57 119.492 580.505 149.278C634.142 181.272 670.097 236.518 689.786 295.787C710.335 357.645 715.036 425.351 692.54 486.528C669.858 548.214 628.578 610.669 566.29 631.641Z" stroke="black"/>
</svg>
