<svg width="502" height="569" viewBox="0 0 502 569" fill="none" xmlns="http://www.w3.org/2000/svg">
<path opacity="0.3" fill-rule="evenodd" clip-rule="evenodd" d="M223.401 30.6322C284.446 11.7971 361.215 -21.5149 410.036 19.7113C459.652 61.6095 417.486 145.47 433.844 208.339C448.633 265.173 513.058 309.472 500.351 366.808C487.611 424.293 420.554 448.123 373.013 482.821C325.364 517.598 282.356 567.336 223.401 568.942C163.971 570.562 104.512 537.894 67.7483 491.141C34.5374 448.905 52.3677 388.65 40.4312 336.251C30.0601 290.725 -10.4762 249.794 2.55499 204.957C15.6419 159.928 68.2887 142.846 105.083 113.803C143.874 83.1832 176.187 45.1998 223.401 30.6322Z" fill="#E4D8CF"/>
</svg>
