<svg width="671" height="639" viewBox="0 0 671 639" fill="none" xmlns="http://www.w3.org/2000/svg">
<path opacity="0.2" fill-rule="evenodd" clip-rule="evenodd" d="M184.571 124.568C238.269 86.574 265.499 12.8793 332.08 2.51164C399.433 -7.97647 468.49 28.2169 517.091 72.7886C560.345 112.457 552.512 176.768 577.983 228.028C604.715 281.827 673.406 320.115 669.368 379.243C665.246 439.597 605.906 481.941 557.855 522.746C508.619 564.558 455.261 601.343 390.46 616.091C317.092 632.789 225.171 658.52 169.444 611.144C112.064 562.361 168.201 468.4 138.291 401.709C108.799 335.95 -10.3441 306.859 1.40981 236.472C12.8915 167.715 124.98 166.73 184.571 124.568Z" stroke="black"/>
</svg>
